<!-- 2022-02-19 17:37:37 Generated by QCAD 3.27.1 SVG Exporter --><svg xmlns:inkscape="http://www.inkscape.org/namespaces/inkscape" xmlns:sodipodi="http://sodipodi.sourceforge.net/DTD/sodipodi-0.dtd" xmlns="http://www.w3.org/2000/svg" xmlns:svg="http://www.w3.org/2000/svg" width="200mm" height="58mm" viewBox="-33 -11 200 58" version="1.1" style="stroke-linecap:round;stroke-linejoin:round;fill:none" id="svg160" sodipodi:docname="caliper02.tar" inkscape:version="1.1.1 (3bf5ae0, 2021-09-20)">
  <defs id="defs164">
    <inkscape:path-effect effect="fill_between_many" method="originald" linkedpaths="#path130,0,1|#path132,0,1|#path134,0,1|#path136,0,1" id="path-effect176"/>
    <inkscape:path-effect effect="fill_between_many" method="originald" linkedpaths="#path122,0,1|#path124,0,1|#path126,0,1|#path128,0,1" id="path-effect234"/>
    <inkscape:path-effect effect="fill_between_many" method="originald" linkedpaths="#path100,0,1|#path104,0,1|#path106,0,1|#path108,0,1|#path110,0,1|#path112,0,1" id="path-effect256"/>
    <inkscape:path-effect effect="fill_between_many" method="originald" linkedpaths="#path138,0,1|#path140,0,1|#path142,0,1|#path144,0,1" id="path-effect278"/>
    <inkscape:path-effect effect="fill_between_many" method="originald" linkedpaths="#path98,0,1|#path92,0,1|#path90,0,1|#path88,0,1|#path86,0,1|#path84,0,1|#path74,0,1|#path82,0,1|#path78,0,1|#path118,0,1" id="path-effect1187"/>
    <inkscape:path-effect effect="fill_between_many" method="originald" linkedpaths="#path1469,0,1|#path150,0,1|#path114,0,1|#path94,0,1|#path116,0,1|#path152,0,1" id="path-effect1551"/>
    <inkscape:path-effect effect="fill_between_many" method="originald" linkedpaths="#path1469,0,1|#path146,0,1|#path1260,0,1|#path96,0,1|#path148,0,1" id="path-effect1609"/>
    <inkscape:path-effect effect="fill_between_many" method="originald" linkedpaths="#path1903,0,1|#path70,0,1|#path80,0,1|#path72,0,1|#path120,0,1|#path76,0,1" id="path-effect1985"/>
  </defs>
  <sodipodi:namedview id="namedview162" pagecolor="#ffffff" bordercolor="#666666" borderopacity="1.0" inkscape:pageshadow="2" inkscape:pageopacity="0.0" inkscape:pagecheckerboard="0" inkscape:document-units="mm" showgrid="false" inkscape:zoom="1.6629063" inkscape:cx="227.61355" inkscape:cy="174.39348" inkscape:window-width="1920" inkscape:window-height="994" inkscape:window-x="0" inkscape:window-y="0" inkscape:window-maximized="1" inkscape:current-layer="layer2" inkscape:object-paths="true" inkscape:snap-nodes="true" inkscape:snap-bbox="true" inkscape:bbox-nodes="true"/>
  <g inkscape:groupmode="layer" id="layer2" inkscape:label="visible 1" style="display:inline">
    <path id="path1987" style="fill:#800000;stroke-width:3.77953" d="m 0,11.337891 v 94.488279 l 17.845703,107.07031 a 7.5590551,7.5590551 0 0 0 7.455078,6.31641 H 37.794922 V 56.693359 H 755.90625 V 11.337891 H 37.794922 Z" transform="matrix(0.26458333,0,0,0.26458333,-33,-11)"/>
    <path id="path1189" style="display:inline;fill:#ff0000;stroke-width:1;stroke-linecap:round;stroke-linejoin:round" d="m -18,9 v 2.999817 h 1.999878 v 12.0003 H -18 v 42.999959 h 3.305741 a 1.9999999,1.9999999 0 0 0 1.973007,-1.671217 L -8.000093,36.99984 v -9.999906 h 8.9999672 a 78.624998,78.624998 0 0 1 25.0000238,0 h 6.000149 a 1.9999999,1.9999999 0 0 0 1.99988,-1.999878 V 10.999878 A 1.9999999,1.9999999 0 0 0 32.000047,9 H 25.999898 A 78.624998,78.624998 0 0 1 0.9998742,9 H -8.000093 Z m 9.999907,2.999817 h 2.000394 v 12.0003 h -2.000394 z m 4.000272,0 h 1.999878 v 12.0003 h -1.999878 z m 33.000052,0 h 1.999879 v 12.0003 H 29.000231 Z M 0.9998742,14.000212 H 25.999898 v 8.000028 a 1.9999999,1.9999999 0 0 1 -1.999877,1.999877 H 3.0002697 A 1.9999999,1.9999999 0 0 1 0.9998742,22.00024 Z"/>
  </g>
  </svg>