<?xml version="1.0" encoding="UTF-8" standalone="no"?>
<!-- 2022-02-19 17:37:37 Generated by QCAD 3.27.1 SVG Exporter -->

<svg
   width="200mm"
   height="58mm"
   viewBox="-33 -11 200 58"
   version="1.1"
   style="stroke-linecap:round;stroke-linejoin:round;fill:none"
   id="svg160"
   sodipodi:docname="caliper02.svg"
   inkscape:version="1.1.1 (3bf5ae0, 2021-09-20)"
   xmlns:inkscape="http://www.inkscape.org/namespaces/inkscape"
   xmlns:sodipodi="http://sodipodi.sourceforge.net/DTD/sodipodi-0.dtd"
   xmlns="http://www.w3.org/2000/svg"
   xmlns:svg="http://www.w3.org/2000/svg">
  <defs
     id="defs164">
    <inkscape:path-effect
       effect="fill_between_many"
       method="originald"
       linkedpaths="#path130,0,1|#path132,0,1|#path134,0,1|#path136,0,1"
       id="path-effect176" />
    <inkscape:path-effect
       effect="fill_between_many"
       method="originald"
       linkedpaths="#path122,0,1|#path124,0,1|#path126,0,1|#path128,0,1"
       id="path-effect234" />
    <inkscape:path-effect
       effect="fill_between_many"
       method="originald"
       linkedpaths="#path100,0,1|#path104,0,1|#path106,0,1|#path108,0,1|#path110,0,1|#path112,0,1"
       id="path-effect256" />
    <inkscape:path-effect
       effect="fill_between_many"
       method="originald"
       linkedpaths="#path138,0,1|#path140,0,1|#path142,0,1|#path144,0,1"
       id="path-effect278" />
    <inkscape:path-effect
       effect="fill_between_many"
       method="originald"
       linkedpaths="#path98,0,1|#path92,0,1|#path90,0,1|#path88,0,1|#path86,0,1|#path84,0,1|#path74,0,1|#path82,0,1|#path78,0,1|#path118,0,1"
       id="path-effect1187" />
    <inkscape:path-effect
       effect="fill_between_many"
       method="originald"
       linkedpaths="#path1469,0,1|#path150,0,1|#path114,0,1|#path94,0,1|#path116,0,1|#path152,0,1"
       id="path-effect1551" />
    <inkscape:path-effect
       effect="fill_between_many"
       method="originald"
       linkedpaths="#path1469,0,1|#path146,0,1|#path1260,0,1|#path96,0,1|#path148,0,1"
       id="path-effect1609" />
    <inkscape:path-effect
       effect="fill_between_many"
       method="originald"
       linkedpaths="#path1903,0,1|#path70,0,1|#path80,0,1|#path72,0,1|#path120,0,1|#path76,0,1"
       id="path-effect1985" />
  </defs>
  <sodipodi:namedview
     id="namedview162"
     pagecolor="#ffffff"
     bordercolor="#666666"
     borderopacity="1.0"
     inkscape:pageshadow="2"
     inkscape:pageopacity="0.0"
     inkscape:pagecheckerboard="0"
     inkscape:document-units="mm"
     showgrid="false"
     inkscape:zoom="1.6629063"
     inkscape:cx="270.91124"
     inkscape:cy="181.60976"
     inkscape:window-width="1920"
     inkscape:window-height="994"
     inkscape:window-x="0"
     inkscape:window-y="0"
     inkscape:window-maximized="1"
     inkscape:current-layer="layer2"
     inkscape:object-paths="true"
     inkscape:snap-nodes="true"
     inkscape:snap-bbox="true"
     inkscape:bbox-nodes="true" />
  <g
     inkscape:groupmode="layer"
     id="layer2"
     inkscape:label="visible 1"
     style="display:inline">
    <path
       id="path1987"
       style="fill:#800000;stroke-width:3.77953"
       d="m 0,11.337891 v 94.488279 l 17.845703,107.07031 a 7.5590551,7.5590551 0 0 0 7.455078,6.31641 H 37.794922 V 56.693359 H 755.90625 V 11.337891 H 37.794922 Z"
       transform="matrix(0.26458333,0,0,0.26458333,-33,-11)" />
    <path
       id="path1189"
       style="display:inline;fill:#ff0000;stroke-width:1;stroke-linecap:round;stroke-linejoin:round"
       d="m -18,9 v 2.999817 h 1.999878 v 12.0003 H -18 v 42.999959 h 3.305741 a 1.9999999,1.9999999 0 0 0 1.973007,-1.671217 L -8.000093,36.99984 v -9.999906 h 8.9999672 a 78.624998,78.624998 0 0 1 25.0000238,0 h 6.000149 a 1.9999999,1.9999999 0 0 0 1.99988,-1.999878 V 10.999878 A 1.9999999,1.9999999 0 0 0 32.000047,9 H 25.999898 A 78.624998,78.624998 0 0 1 0.9998742,9 H -8.000093 Z m 9.999907,2.999817 h 2.000394 v 12.0003 h -2.000394 z m 4.000272,0 h 1.999878 v 12.0003 h -1.999878 z m 33.000052,0 h 1.999879 v 12.0003 H 29.000231 Z M 0.9998742,14.000212 H 25.999898 v 8.000028 a 1.9999999,1.9999999 0 0 1 -1.999877,1.999877 H 3.0002697 A 1.9999999,1.9999999 0 0 1 0.9998742,22.00024 Z" />
  </g>
  <g
     inkscape:groupmode="layer"
     id="layer5"
     inkscape:label="score"
     style="display:inline">
    <path
       d="M 8,0 V -6"
       style="fill:none;stroke:#000080;stroke-width:0.25;stroke-linecap:round;stroke-linejoin:round"
       id="path2" />
    <path
       d="M 78,0 V -6"
       style="fill:none;stroke:#000080;stroke-width:0.25;stroke-linecap:round;stroke-linejoin:round"
       id="path4" />
    <path
       d="M 18,0 V -6"
       style="fill:none;stroke:#000080;stroke-width:0.25;stroke-linecap:round;stroke-linejoin:round"
       id="path6" />
    <path
       d="M 88,0 V -6"
       style="fill:none;stroke:#000080;stroke-width:0.25;stroke-linecap:round;stroke-linejoin:round"
       id="path8" />
    <path
       d="M 28,0 V -6"
       style="fill:none;stroke:#000080;stroke-width:0.25;stroke-linecap:round;stroke-linejoin:round"
       id="path10" />
    <path
       d="M 98,0 V -6"
       style="fill:none;stroke:#000080;stroke-width:0.25;stroke-linecap:round;stroke-linejoin:round"
       id="path12" />
    <path
       d="M 38,0 V -6"
       style="fill:none;stroke:#000080;stroke-width:0.25;stroke-linecap:round;stroke-linejoin:round"
       id="path14" />
    <path
       d="M 108,0 V -6"
       style="fill:none;stroke:#000080;stroke-width:0.25;stroke-linecap:round;stroke-linejoin:round"
       id="path16" />
    <path
       d="M 48,0 V -6"
       style="fill:none;stroke:#000080;stroke-width:0.25;stroke-linecap:round;stroke-linejoin:round"
       id="path18" />
    <path
       d="M 118,0 V -6"
       style="fill:none;stroke:#000080;stroke-width:0.25;stroke-linecap:round;stroke-linejoin:round"
       id="path20" />
    <path
       d="M 148,0 V -6"
       style="fill:none;stroke:#000080;stroke-width:0.25;stroke-linecap:round;stroke-linejoin:round"
       id="path22" />
    <path
       d="M 58,0 V -6"
       style="fill:none;stroke:#000080;stroke-width:0.25;stroke-linecap:round;stroke-linejoin:round"
       id="path24" />
    <path
       d="M 128,0 V -6"
       style="fill:none;stroke:#000080;stroke-width:0.25;stroke-linecap:round;stroke-linejoin:round"
       id="path26" />
    <path
       d="M 158,0 V -6"
       style="fill:none;stroke:#000080;stroke-width:0.25;stroke-linecap:round;stroke-linejoin:round"
       id="path28" />
    <path
       d="M 68,0 V -6"
       style="fill:none;stroke:#000080;stroke-width:0.25;stroke-linecap:round;stroke-linejoin:round"
       id="path30" />
    <path
       d="M 138,0 V -6"
       style="fill:none;stroke:#000080;stroke-width:0.25;stroke-linecap:round;stroke-linejoin:round"
       id="path32" />
    <path
       d="m 13,-6 v 4"
       style="fill:none;stroke:#000080;stroke-width:0.25;stroke-linecap:round;stroke-linejoin:round"
       id="path34" />
    <path
       d="m 23,-6 v 4"
       style="fill:none;stroke:#000080;stroke-width:0.25;stroke-linecap:round;stroke-linejoin:round"
       id="path36" />
    <path
       d="m 33,-6 v 4"
       style="fill:none;stroke:#000080;stroke-width:0.25;stroke-linecap:round;stroke-linejoin:round"
       id="path38" />
    <path
       d="m 43,-6 v 4"
       style="fill:none;stroke:#000080;stroke-width:0.25;stroke-linecap:round;stroke-linejoin:round"
       id="path40" />
    <path
       d="m 53,-6 v 4"
       style="fill:none;stroke:#000080;stroke-width:0.25;stroke-linecap:round;stroke-linejoin:round"
       id="path42" />
    <path
       d="m 63,-6 v 4"
       style="fill:none;stroke:#000080;stroke-width:0.25;stroke-linecap:round;stroke-linejoin:round"
       id="path44" />
    <path
       d="m 73,-6 v 4"
       style="fill:none;stroke:#000080;stroke-width:0.25;stroke-linecap:round;stroke-linejoin:round"
       id="path46" />
    <path
       d="m 83,-6 v 4"
       style="fill:none;stroke:#000080;stroke-width:0.25;stroke-linecap:round;stroke-linejoin:round"
       id="path48" />
    <path
       d="m 93,-6 v 4"
       style="fill:none;stroke:#000080;stroke-width:0.25;stroke-linecap:round;stroke-linejoin:round"
       id="path50" />
    <path
       d="m 103,-6 v 4"
       style="fill:none;stroke:#000080;stroke-width:0.25;stroke-linecap:round;stroke-linejoin:round"
       id="path52" />
    <path
       d="m 113,-6 v 4"
       style="fill:none;stroke:#000080;stroke-width:0.25;stroke-linecap:round;stroke-linejoin:round"
       id="path54" />
    <path
       d="m 123,-6 v 4"
       style="fill:none;stroke:#000080;stroke-width:0.25;stroke-linecap:round;stroke-linejoin:round"
       id="path56" />
    <path
       d="m 153,-6 v 4"
       style="fill:none;stroke:#000080;stroke-width:0.25;stroke-linecap:round;stroke-linejoin:round"
       id="path58" />
    <path
       d="m 133,-6 v 4"
       style="fill:none;stroke:#000080;stroke-width:0.25;stroke-linecap:round;stroke-linejoin:round"
       id="path60" />
    <path
       d="m 143,-6 v 4"
       style="fill:none;stroke:#000080;stroke-width:0.25;stroke-linecap:round;stroke-linejoin:round"
       id="path68" />
    <path
       d="M 13.000094,14 V 12"
       style="display:inline;fill:none;stroke:#0000ff;stroke-width:0.25;stroke-linecap:round;stroke-linejoin:round"
       id="path102" />
    <g
       id="g156"
       transform="matrix(1,0,0,-1,5.0000933,19.999999)"
       style="display:inline;fill:none;stroke-linecap:round;stroke-linejoin:round">
      <path
         d="M -1.147,8 C -1.147,7.809 -1.1646,7.6479 -1.1996,7.5167 -1.2347,7.3856 -1.2832,7.2796 -1.3451,7.1988 -1.407,7.1179 -1.4804,7.0598 -1.5651,7.0242 -1.6498,6.9887 -1.7423,6.971 -1.8427,6.971 c -0.1002,0 -0.1924,0.0174 -0.2767,0.0524 -0.0842,0.0349 -0.1566,0.0929 -0.2172,0.1738 -0.0605,0.081 -0.1078,0.187 -0.1419,0.318 -0.034,0.131 -0.051,0.2926 -0.051,0.4848 0,0.2015 0.0167,0.3683 0.0503,0.5003 0.0336,0.1321 0.0811,0.2374 0.1426,0.316 0.0615,0.0785 0.135,0.1336 0.2207,0.1653 0.0856,0.0316 0.1805,0.0474 0.2848,0.0474 0.0974,0 0.188,-0.0158 0.2717,-0.0474 0.0836,-0.0317 0.156,-0.0868 0.217,-0.1653 0.061,-0.0786 0.1089,-0.1839 0.1435,-0.316 C -1.1643,8.3683 -1.147,8.2015 -1.147,8 m -0.4003,0 c 0,0.1409 -0.0052,0.2576 -0.0157,0.3499 C -1.5735,8.4422 -1.5901,8.5156 -1.6127,8.57 -1.6354,8.6244 -1.6649,8.6625 -1.7013,8.6843 -1.7378,8.706 -1.782,8.7169 -1.8342,8.7169 -1.89,8.7169 -1.9368,8.7058 -1.9746,8.6836 -2.0124,8.6614 -2.0429,8.6228 -2.0661,8.568 -2.0893,8.5131 -2.1059,8.4395 -2.1158,8.3472 -2.1257,8.2548 -2.1306,8.1391 -2.1306,8 c 0,-0.1371 0.0051,-0.2515 0.0155,-0.3434 0.0104,-0.0919 0.0269,-0.1655 0.0497,-0.2208 0.0228,-0.0553 0.0526,-0.0944 0.0895,-0.1172 0.0369,-0.0227 0.0823,-0.0341 0.1362,-0.0341 0.052,0 0.0964,0.0114 0.1332,0.0341 0.0369,0.0228 0.0672,0.0619 0.0909,0.1172 0.0237,0.0553 0.041,0.1289 0.0519,0.2208 0.0109,0.0919 0.0164,0.2063 0.0164,0.3434 m 0.7165,-1.0007 v 0.4331 h 0.4102 V 6.9993 Z M 1.3151,7.665 C 1.3151,7.5648 1.2992,7.4723 1.2676,7.3876 1.2359,7.3029 1.1889,7.2296 1.1264,7.1675 1.0639,7.1055 0.9865,7.0572 0.8943,7.0227 0.8021,6.9882 0.6954,6.971 0.5743,6.971 0.4625,6.971 0.365,6.9845 0.2818,7.0114 0.1985,7.0384 0.1283,7.0758 0.071,7.1236 0.0138,7.1714 -0.0312,7.2275 -0.0639,7.2918 -0.0965,7.3562 -0.119,7.4252 -0.1313,7.499 L 0.2676,7.5318 C 0.2751,7.5003 0.2857,7.47 0.2995,7.4407 0.3133,7.4115 0.3325,7.3855 0.3571,7.3627 0.3817,7.3399 0.4119,7.3217 0.4479,7.3081 0.4839,7.2944 0.5274,7.2876 0.5784,7.2876 c 0.0993,0 0.1785,0.0317 0.2377,0.0951 0.0592,0.0634 0.0888,0.1546 0.0888,0.2737 0,0.0531 -0.0074,0.1009 -0.022,0.1435 C 0.8682,7.8424 0.8473,7.8789 0.8204,7.9092 0.7934,7.9394 0.7602,7.9626 0.721,7.9787 0.6817,7.9947 0.637,8.0027 0.5869,8.0027 0.5207,8.0027 0.4662,7.9902 0.4237,7.9652 0.3811,7.9401 0.3451,7.9096 0.3157,7.8736 h -0.389 l 0.0697,1.1257 H 1.1986 V 8.7029 H 0.3584 L 0.3256,8.1974 c 0.0399,0.0351 0.0901,0.0651 0.1507,0.0902 0.0605,0.025 0.131,0.0375 0.2114,0.0375 0.0983,0 0.1863,-0.0161 0.264,-0.0483 C 1.0293,8.2446 1.0951,8.1996 1.1491,8.1419 1.203,8.0842 1.2442,8.0149 1.2725,7.9341 1.3009,7.8533 1.3151,7.7635 1.3151,7.665 M 3.3315,7.3002 c 0.0785,0 0.1464,0.0111 0.2037,0.0333 0.0572,0.0222 0.1069,0.0513 0.1491,0.0873 0.0421,0.0359 0.0771,0.0766 0.105,0.1221 0.0279,0.0454 0.0508,0.0913 0.0688,0.1378 L 4.2228,7.543 C 4.1937,7.4711 4.1555,7.4006 4.1081,7.3315 4.0607,7.2624 4.0015,7.2013 3.9305,7.1484 3.8595,7.0955 3.775,7.0527 3.6771,7.02 3.5792,6.9873 3.464,6.971 3.3315,6.971 3.1584,6.971 3.0085,6.9968 2.8817,7.0483 2.7548,7.0999 2.65,7.1718 2.5671,7.264 2.4842,7.3562 2.4227,7.4657 2.3825,7.5926 2.3423,7.7194 2.3222,7.858 2.3222,8.0085 c 0,0.1562 0.0201,0.2972 0.0603,0.423 0.0402,0.1258 0.101,0.233 0.1824,0.3216 C 2.6463,8.8416 2.7492,8.9098 2.8736,8.9575 2.9981,9.0052 3.1445,9.029 3.313,9.029 3.4437,9.029 3.558,9.0153 3.6559,8.9879 3.7538,8.9604 3.8385,8.9219 3.91,8.8723 3.9815,8.8226 4.0406,8.764 4.0874,8.6964 4.1342,8.6288 4.1709,8.5542 4.1976,8.4727 L 3.8284,8.3719 C 3.8152,8.4145 3.7949,8.4554 3.7674,8.4947 3.74,8.534 3.7052,8.5688 3.6631,8.599 3.621,8.6293 3.5715,8.6537 3.5147,8.6721 3.4579,8.6906 3.3935,8.6998 3.3216,8.6998 3.2202,8.6998 3.1331,8.6835 3.0603,8.6508 2.9874,8.6181 2.9276,8.5715 2.8808,8.5109 2.834,8.4504 2.7995,8.3777 2.7773,8.293 2.7551,8.2083 2.744,8.1135 2.744,8.0085 2.744,7.9045 2.7551,7.8091 2.7773,7.7225 2.7995,7.6359 2.8343,7.5614 2.8817,7.499 2.929,7.4366 2.9898,7.3879 3.064,7.3528 3.1383,7.3177 3.2274,7.3002 3.3315,7.3002 M 6.1576,6.9993 v 1.2121 c 0,0.0483 8e-4,0.098 0.0022,0.1491 C 6.1613,8.4116 6.163,8.4584 6.1648,8.501 6.1675,8.5513 6.1699,8.6001 6.172,8.6472 6.1522,8.5725 6.1333,8.5016 6.1153,8.4344 6.1075,8.406 6.0994,8.3766 6.0908,8.3463 6.0823,8.316 6.0741,8.2867 6.0661,8.2584 6.0581,8.23 6.0503,8.2036 6.0427,8.179 6.0351,8.1544 6.0284,8.1331 6.0227,8.1151 L 5.6624,6.9993 H 5.3642 L 5.0036,8.1151 C 4.9979,8.1331 4.9915,8.1544 4.9845,8.179 4.9774,8.2036 4.9698,8.23 4.9617,8.2584 4.9537,8.2867 4.9454,8.316 4.9368,8.3463 4.9283,8.3766 4.9198,8.406 4.9114,8.4344 4.8925,8.5016 4.8726,8.5725 4.8516,8.6472 4.8546,8.5923 4.8574,8.5385 4.8601,8.4857 4.8622,8.4401 4.8641,8.3923 4.8659,8.3422 4.8678,8.2921 4.8687,8.2485 4.8687,8.2114 V 6.9993 H 4.4968 v 2 H 5.0575 L 5.4155,7.8808 C 5.4248,7.8514 5.4349,7.8155 5.4459,7.7729 5.4568,7.7303 5.4674,7.6892 5.4776,7.6496 5.489,7.6031 5.5013,7.5549 5.5145,7.5048 5.5279,7.554 5.5408,7.6012 5.5531,7.6465 5.5588,7.6666 5.5644,7.6869 5.57,7.7077 c 0.0056,0.0207 0.0112,0.041 0.0169,0.0609 0.0057,0.0199 0.0114,0.0389 0.0171,0.0569 0.0057,0.018 0.0109,0.034 0.0157,0.0481 l 0.3521,1.1257 h 0.5577 v -2 z"
         style="fill:#0000ff;fill-rule:evenodd"
         id="path154" />
    </g>
  </g>
</svg>
