<?xml version="1.0" encoding="UTF-8" standalone="no"?>
<!-- 2022-02-19 23:15:43 Generated by QCAD 3.27.1 SVG Exporter -->

<svg
   width="17.66cm"
   height="5.3979998cm"
   viewBox="0 -53.98 176.6 53.98"
   version="1.1"
   style="fill:none;stroke-linecap:round;stroke-linejoin:round"
   id="svg60"
   sodipodi:docname="gauge04.svg"
   inkscape:version="1.1.1 (3bf5ae0d25, 2021-09-20)"
   xmlns:inkscape="http://www.inkscape.org/namespaces/inkscape"
   xmlns:sodipodi="http://sodipodi.sourceforge.net/DTD/sodipodi-0.dtd"
   xmlns="http://www.w3.org/2000/svg"
   xmlns:svg="http://www.w3.org/2000/svg">
  <defs
     id="defs64">
    <inkscape:path-effect
       effect="fill_between_many"
       method="originald"
       linkedpaths="#path2,0,1|#path6,0,1|#path10,0,1|#path14,0,1|#path34,0,1|#path38,0,1|#path42,0,1|#path46,0,1"
       id="path-effect95"
       is_visible="true"
       lpeversion="0"
       join="true"
       close="true"
       autoreverse="true"
       applied="false" />
  </defs>
  <sodipodi:namedview
     id="namedview62"
     pagecolor="#ffffff"
     bordercolor="#666666"
     borderopacity="1.0"
     inkscape:pageshadow="2"
     inkscape:pageopacity="0.0"
     inkscape:pagecheckerboard="0"
     inkscape:document-units="mm"
     showgrid="false"
     inkscape:snap-page="true"
     showguides="false"
     inkscape:guide-bbox="true"
     inkscape:zoom="1.326359"
     inkscape:cx="157.19726"
     inkscape:cy="58.430636"
     inkscape:window-width="1920"
     inkscape:window-height="1001"
     inkscape:window-x="-9"
     inkscape:window-y="1071"
     inkscape:window-maximized="1"
     inkscape:current-layer="layer1"
     inkscape:snap-bbox="true"
     inkscape:snap-bbox-edge-midpoints="true"
     units="cm">
    <sodipodi:guide
       position="85.599996,51.980001"
       orientation="1,0"
       id="guide163" />
    <sodipodi:guide
       position="176.6,0"
       orientation="0,-1"
       id="guide186" />
    <sodipodi:guide
       position="0,26.989999"
       orientation="0,-1"
       id="guide526" />
  </sodipodi:namedview>
  <g
     inkscape:groupmode="layer"
     id="layer1"
     inkscape:label="visible"
     sodipodi:insensitive="true"
     style="display:inline">
    <path
       id="rect486"
       style="fill:#800000;stroke-width:0.999999;stroke-linecap:round;stroke-linejoin:round"
       d="m 351.49609,0 c -4.18771,0 -7.55859,3.3708772 -7.55859,7.5585938 V 196.45898 c 0,4.18772 3.37088,7.56055 7.55859,7.56055 h 308.41016 c 4.18772,0 7.55859,-3.37283 7.55859,-7.56055 V 7.5585938 C 667.46484,3.3708772 664.09397,0 659.90625,0 Z m 42.47266,60.009766 a 42,42 0 0 1 42,42.000004 42,42 0 0 1 -42,42 42,42 0 0 1 -42,-42 42,42 0 0 1 42,-42.000004 z m 110.48828,12 a 30,30 0 0 1 30,30.000004 30,30 0 0 1 -30,30 30,30 0 0 1 -30,-30 30,30 0 0 1 30,-30.000004 z m 86.48828,12 a 17.999999,17.999999 0 0 1 18,18.000004 17.999999,17.999999 0 0 1 -18,18 17.999999,17.999999 0 0 1 -18,-18 17.999999,17.999999 0 0 1 18,-18.000004 z m 62.48828,12 a 5.9999998,5.9999998 0 0 1 6,6.000004 5.9999998,5.9999998 0 0 1 -6,6 5.9999998,5.9999998 0 0 1 -6,-6 5.9999998,5.9999998 0 0 1 6,-6.000004 z"
       transform="matrix(0.26458333,0,0,0.26458333,0,-53.98)" />
    <path
       id="rect165"
       style="fill:#800000;stroke-width:0.999999;stroke-linecap:round;stroke-linejoin:round"
       d="M 7.5585938,0 C 3.3708772,0 0,3.3708772 0,7.5585938 V 196.45898 c 0,4.18772 3.3708772,7.56055 7.5585938,7.56055 H 315.96875 c 4.18772,0 7.55859,-3.37283 7.55859,-7.56055 V 7.5585938 C 323.52734,3.3708772 320.15647,0 315.96875,0 Z M 55.558594,54.009766 a 47.999998,47.999998 0 0 1 47.999996,48.000004 47.999998,47.999998 0 0 1 -47.999996,48 47.999998,47.999998 0 0 1 -48.0000002,-48 47.999998,47.999998 0 0 1 48.0000002,-48.000004 z m 106.802736,12 a 35.999999,35.999999 0 0 1 36,36.000004 35.999999,35.999999 0 0 1 -36,36 35.999999,35.999999 0 0 1 -36,-36 35.999999,35.999999 0 0 1 36,-36.000004 z m 82.80469,12 a 24,24 0 0 1 24,24.000004 24,24 0 0 1 -24,24 24,24 0 0 1 -24,-24 24,24 0 0 1 24,-24.000004 z m 58.80273,12 a 12,12 0 0 1 12,12.000004 12,12 0 0 1 -12,12 12,12 0 0 1 -12,-12 12,12 0 0 1 12,-12.000004 z"
       transform="matrix(0.26458333,0,0,0.26458333,0,-53.98)" />
  </g>
  <g
     inkscape:groupmode="layer"
     id="layer2"
     inkscape:label="score"
     sodipodi:insensitive="true">
    <g
       id="g52"
       transform="scale(1,-1)"
       style="fill:none;stroke-linecap:round;stroke-linejoin:round">
      <path
         d="M 73.075,2.8806 H 71.7333 V 7.9372 C 71.2431,7.4789 70.6653,7.1398 70,6.9202 v 1.2176 c 0.3502,0.1146 0.7306,0.3318 1.1412,0.6518 0.4106,0.3199 0.6924,0.6931 0.8452,1.1197 H 73.075 Z M 74.6506,2.7613 76.3839,10 h 1.0075 L 75.639,2.7613 Z m 5.7772,0.1193 v 1.4086 h -2.8649 v 1.1746 l 3.0368,4.4455 h 1.1269 V 5.4686 h 0.869 V 4.2892 h -0.869 V 2.8806 Z m 0,2.588 V 7.8608 L 78.8187,5.4686 Z"
         style="fill:#000080;fill-rule:evenodd"
         id="path50" />
    </g>
    <g
       id="g56"
       transform="scale(1,-1)"
       style="fill:none;stroke-linecap:round;stroke-linejoin:round">
      <path
         d="m 163.075,2.8806 h -1.3417 V 7.9372 C 161.2431,7.4789 160.6653,7.1398 160,6.9202 v 1.2176 c 0.3502,0.1146 0.7306,0.3318 1.1412,0.6518 0.4106,0.3199 0.6924,0.6931 0.8452,1.1197 h 1.0886 z M 164.6506,2.7613 166.3839,10 h 1.0075 L 165.639,2.7613 Z m 4.297,3.8963 c -0.347,0.1464 -0.5993,0.3477 -0.7568,0.604 -0.1576,0.2562 -0.2364,0.5372 -0.2364,0.8428 0,0.522 0.1822,0.9534 0.5467,1.294 0.3645,0.3406 0.8826,0.5109 1.5543,0.5109 0.6653,0 1.1817,-0.1703 1.5494,-0.5109 0.3677,-0.3406 0.5515,-0.772 0.5515,-1.294 0,-0.3247 -0.0843,-0.6136 -0.2531,-0.8667 -0.1687,-0.253 -0.4058,-0.4464 -0.7114,-0.5801 0.3883,-0.156 0.6836,-0.3836 0.8857,-0.6828 0.2022,-0.2993 0.3032,-0.6446 0.3032,-1.0362 0,-0.6462 -0.2061,-1.1714 -0.6183,-1.5757 -0.4122,-0.4043 -0.9606,-0.6064 -1.645,-0.6064 -0.6366,0 -1.1666,0.1671 -1.59,0.5013 -0.4998,0.3948 -0.7497,0.9359 -0.7497,1.6235 0,0.3788 0.0939,0.7266 0.2818,1.0433 0.1878,0.3168 0.4838,0.5611 0.8881,0.733 m 0.2769,1.3513 c 0,-0.2674 0.0756,-0.4759 0.2268,-0.6255 0.1512,-0.1497 0.3526,-0.2245 0.6041,-0.2245 0.2546,0 0.4584,0.0756 0.6111,0.2268 0.1528,0.1512 0.2292,0.3605 0.2292,0.6279 0,0.2515 -0.0756,0.4529 -0.2268,0.6041 -0.1512,0.1512 -0.3509,0.2268 -0.5992,0.2268 -0.2579,0 -0.4632,-0.0764 -0.616,-0.2292 -0.1528,-0.1528 -0.2292,-0.355 -0.2292,-0.6064 m -0.1241,-2.9987 c 0,-0.3692 0.0947,-0.6573 0.2841,-0.8642 0.1894,-0.2069 0.4258,-0.3104 0.7091,-0.3104 0.2769,0 0.5061,0.0995 0.6875,0.2984 0.1815,0.199 0.2722,0.4863 0.2722,0.8619 0,0.3279 -0.0923,0.5913 -0.2769,0.7903 -0.1847,0.1989 -0.4186,0.2984 -0.7019,0.2984 -0.3279,0 -0.5722,-0.113 -0.733,-0.339 -0.1607,-0.226 -0.2411,-0.4712 -0.2411,-0.7354"
         style="fill:#000080;fill-rule:evenodd"
         id="path54" />
    </g>
  </g>
</svg>
