<?xml version="1.0" encoding="UTF-8" standalone="no"?>
<!-- 2022-02-19 22:13:39 Generated by QCAD 3.27.1 SVG Exporter -->

<svg
   width="200mm"
   height="59mm"
   viewBox="-33 -12 200 59"
   version="1.1"
   style="stroke-linecap:round;stroke-linejoin:round;fill:none"
   id="svg160"
   sodipodi:docname="caliper02.svg"
   inkscape:version="1.1.1 (3bf5ae0d25, 2021-09-20)"
   xmlns:inkscape="http://www.inkscape.org/namespaces/inkscape"
   xmlns:sodipodi="http://sodipodi.sourceforge.net/DTD/sodipodi-0.dtd"
   xmlns="http://www.w3.org/2000/svg"
   xmlns:svg="http://www.w3.org/2000/svg">
  <defs
     id="defs164">
    <inkscape:path-effect
       effect="fill_between_many"
       method="originald"
       linkedpaths="#path62,0,1|#path70,0,1|#path326,0,1|#path72,0,1|#path80,0,1|#path120,0,1|#path76,0,1"
       id="path-effect466" />
    <inkscape:path-effect
       effect="fill_between_many"
       method="originald"
       linkedpaths="#path70,0,1|#path72,0,1|#path76,0,1|#path80,0,1|#path120,0,1|#path704,0,1"
       id="path-effect786" />
    <inkscape:path-effect
       effect="fill_between_many"
       method="originald"
       linkedpaths="#path1193,0,1|#path70,0,1|#path72,0,1|#path80,0,1|#path120,0,1|#path76,0,1"
       id="path-effect1275" />
    <inkscape:path-effect
       effect="fill_between_many"
       method="originald"
       linkedpaths="#path1193,0,1|#path1191,0,1|#path62,0,1|#path66,0,1|#path64,0,1"
       id="path-effect1384" />
    <inkscape:path-effect
       effect="fill_between_many"
       method="originald"
       linkedpaths="#path92,0,1|#path1521,0,1|#path90,0,1|#path88,0,1|#path86,0,1|#path84,0,1|#path74,0,1|#path98,0,1|#path82,0,1|#path78,0,1|#path118,0,1"
       id="path-effect1700" />
    <inkscape:path-effect
       effect="fill_between_many"
       method="originald"
       linkedpaths="#path74,0,1|#path1858,0,1|#path98,0,1|#path82,0,1|#path118,0,1|#path78,0,1"
       id="path-effect1969" />
    <inkscape:path-effect
       effect="fill_between_many"
       method="originald"
       linkedpaths="#path1856,0,1|#path1858,0,1|#path86,0,1|#path84,0,1|#path88,0,1|#path90,0,1|#path92,0,1|#path1519,0,1|#path698,0,1"
       id="path-effect2049" />
    <inkscape:path-effect
       effect="fill_between_many"
       method="originald"
       linkedpaths="#path130,0,1|#path132,0,1|#path134,0,1|#path136,0,1"
       id="path-effect2186" />
    <inkscape:path-effect
       effect="fill_between_many"
       method="originald"
       linkedpaths="#path122,0,1|#path124,0,1|#path126,0,1|#path128,0,1"
       id="path-effect2226" />
    <inkscape:path-effect
       effect="fill_between_many"
       method="originald"
       linkedpaths="#path138,0,1|#path140,0,1|#path142,0,1|#path144,0,1"
       id="path-effect2248" />
    <inkscape:path-effect
       effect="fill_between_many"
       method="originald"
       linkedpaths="#path100,0,1|#path104,0,1|#path106,0,1|#path108,0,1|#path110,0,1|#path112,0,1"
       id="path-effect2270" />
    <inkscape:path-effect
       effect="fill_between_many"
       method="originald"
       linkedpaths="#path84,0,1|#path86,0,1|#path88,0,1|#path90,0,1|#path1856,0,1|#path1858,0,1|#path2104,0,1|#path92,0,1"
       id="path-effect2321" />
    <inkscape:path-effect
       effect="fill_between_many"
       method="originald"
       linkedpaths="#path2104,0,1|#path1519,0,1|#path698,0,1|#path96,0,1"
       id="path-effect2401" />
    <inkscape:path-effect
       effect="fill_between_many"
       method="originald"
       linkedpaths="#path698,0,1|#path146,0,1|#path696,0,1|#path148,0,1"
       id="path-effect2423" />
    <inkscape:path-effect
       effect="fill_between_many"
       method="originald"
       linkedpaths="#path150,0,1|#path696,0,1|#path114,0,1|#path94,0,1|#path116,0,1|#path152,0,1"
       id="path-effect2503" />
    <inkscape:path-effect
       effect="fill_between_many"
       method="originald"
       linkedpaths="#path2721,0,1|#path2558,0,1|#path1858,0,1|#path1856,0,1|#path84,0,1"
       id="path-effect2861" />
    <inkscape:path-effect
       effect="fill_between_many"
       method="originald"
       linkedpaths="#path86,0,1|#path2558,0,1|#path2104,0,1|#path92,0,1|#path90,0,1|#path88,0,1"
       id="path-effect2941" />
  </defs>
  <sodipodi:namedview
     id="namedview162"
     pagecolor="#ffffff"
     bordercolor="#666666"
     borderopacity="1.0"
     inkscape:pageshadow="2"
     inkscape:pageopacity="0.0"
     inkscape:pagecheckerboard="0"
     inkscape:document-units="mm"
     showgrid="false"
     inkscape:snap-bbox="false"
     inkscape:bbox-nodes="true"
     showguides="false"
     inkscape:guide-bbox="true"
     inkscape:snap-intersection-paths="true"
     inkscape:zoom="3.3125833"
     inkscape:cx="148.52457"
     inkscape:cy="152.90181"
     inkscape:window-width="1920"
     inkscape:window-height="1001"
     inkscape:window-x="-9"
     inkscape:window-y="1071"
     inkscape:window-maximized="1"
     inkscape:current-layer="layer1">
    <sodipodi:guide
       position="25.125,17.875"
       orientation="1,0"
       id="guide287" />
    <sodipodi:guide
       position="34.125,38.875"
       orientation="1,0"
       id="guide289" />
    <sodipodi:guide
       position="59.125,38.875"
       orientation="1,0"
       id="guide291" />
    <sodipodi:guide
       position="9.9999999,43"
       orientation="0,-1"
       id="guide907" />
    <sodipodi:guide
       position="25.125,17.875"
       orientation="0,-1"
       id="guide1802" />
  </sodipodi:namedview>
  <g
     inkscape:groupmode="layer"
     id="layer1"
     inkscape:label="visible"
     style="display:inline">
    <path
       id="path2425"
       style="fill:#ff0000;stroke-width:3.77953;stroke-linecap:round;stroke-linejoin:round"
       d="M 57.166016 76.0625 L 57.166016 91.181641 L 64.724609 91.181641 L 64.724609 136.53516 L 57.166016 136.53516 L 57.166016 155.43359 L 57.166016 299.05469 L 69.660156 299.05469 A 7.559055 7.559055 0 0 0 77.115234 292.73828 L 94.960938 185.66992 L 94.960938 155.43359 L 128.97656 155.43359 A 151.35912 151.35912 0 0 1 223.46484 155.43359 L 246.14258 155.43359 A 7.559055 7.559055 0 0 0 253.70117 147.87305 L 253.70117 83.621094 A 7.559055 7.559055 0 0 0 246.14258 76.0625 L 223.46484 76.0625 A 151.35912 151.35912 0 0 1 128.97656 76.0625 L 94.960938 76.0625 L 57.166016 76.0625 z M 94.960938 91.181641 L 102.51953 91.181641 L 102.51953 136.53516 L 94.960938 136.53516 L 94.960938 91.181641 z M 110.07812 91.181641 L 117.63867 91.181641 L 117.63867 136.53516 L 110.07812 136.53516 L 110.07812 91.181641 z M 234.80273 91.181641 L 242.36133 91.181641 L 242.36133 136.53516 L 234.80273 136.53516 L 234.80273 91.181641 z M 128.97656 98.740234 L 223.46484 98.740234 L 223.46484 128.97656 A 7.559055 7.559055 0 0 1 215.90625 136.53516 L 136.53516 136.53516 A 7.559055 7.559055 0 0 1 128.97656 128.97656 L 128.97656 98.740234 z "
       transform="matrix(0.26458333,0,0,0.26458333,-33,-12)" />
    <path
       id="path1386"
       style="fill:#800000;stroke-width:3.77953;stroke-linecap:round;stroke-linejoin:round"
       d="m 0,15.117188 v 45.355468 49.132814 l 17.845703,107.07031 a 7.5590551,7.5590551 0 0 0 7.455078,6.31641 H 37.794922 V 60.472656 H 755.90625 V 15.117188 Z"
       transform="matrix(0.26458333,0,0,0.26458333,-33,-12)" />
  </g>
  <g
     inkscape:groupmode="layer"
     id="layer2"
     inkscape:label="score"
     sodipodi:insensitive="true"
     style="display:inline">
    <path
       d="M 8,0 V -6"
       style="fill:none;stroke:#000080;stroke-width:0.25;stroke-linecap:round;stroke-linejoin:round"
       id="path2" />
    <path
       d="M 78,0 V -6"
       style="fill:none;stroke:#000080;stroke-width:0.25;stroke-linecap:round;stroke-linejoin:round"
       id="path4" />
    <path
       d="M 18,0 V -6"
       style="fill:none;stroke:#000080;stroke-width:0.25;stroke-linecap:round;stroke-linejoin:round"
       id="path6" />
    <path
       d="M 88,0 V -6"
       style="fill:none;stroke:#000080;stroke-width:0.25;stroke-linecap:round;stroke-linejoin:round"
       id="path8" />
    <path
       d="M 28,0 V -6"
       style="fill:none;stroke:#000080;stroke-width:0.25;stroke-linecap:round;stroke-linejoin:round"
       id="path10" />
    <path
       d="M 98,0 V -6"
       style="fill:none;stroke:#000080;stroke-width:0.25;stroke-linecap:round;stroke-linejoin:round"
       id="path12" />
    <path
       d="M 38,0 V -6"
       style="fill:none;stroke:#000080;stroke-width:0.25;stroke-linecap:round;stroke-linejoin:round"
       id="path14" />
    <path
       d="M 108,0 V -6"
       style="fill:none;stroke:#000080;stroke-width:0.25;stroke-linecap:round;stroke-linejoin:round"
       id="path16" />
    <path
       d="M 48,0 V -6"
       style="fill:none;stroke:#000080;stroke-width:0.25;stroke-linecap:round;stroke-linejoin:round"
       id="path18" />
    <path
       d="M 118,0 V -6"
       style="fill:none;stroke:#000080;stroke-width:0.25;stroke-linecap:round;stroke-linejoin:round"
       id="path20" />
    <path
       d="M 148,0 V -6"
       style="fill:none;stroke:#000080;stroke-width:0.25;stroke-linecap:round;stroke-linejoin:round"
       id="path22" />
    <path
       d="M 58,0 V -6"
       style="fill:none;stroke:#000080;stroke-width:0.25;stroke-linecap:round;stroke-linejoin:round"
       id="path24" />
    <path
       d="M 128,0 V -6"
       style="fill:none;stroke:#000080;stroke-width:0.25;stroke-linecap:round;stroke-linejoin:round"
       id="path26" />
    <path
       d="M 158,0 V -6"
       style="fill:none;stroke:#000080;stroke-width:0.25;stroke-linecap:round;stroke-linejoin:round"
       id="path28" />
    <path
       d="M 68,0 V -6"
       style="fill:none;stroke:#000080;stroke-width:0.25;stroke-linecap:round;stroke-linejoin:round"
       id="path30" />
    <path
       d="M 138,0 V -6"
       style="fill:none;stroke:#000080;stroke-width:0.25;stroke-linecap:round;stroke-linejoin:round"
       id="path32" />
    <path
       d="m 13,-6 v 4"
       style="fill:none;stroke:#000080;stroke-width:0.25;stroke-linecap:round;stroke-linejoin:round"
       id="path34" />
    <path
       d="m 23,-6 v 4"
       style="fill:none;stroke:#000080;stroke-width:0.25;stroke-linecap:round;stroke-linejoin:round"
       id="path36" />
    <path
       d="m 33,-6 v 4"
       style="fill:none;stroke:#000080;stroke-width:0.25;stroke-linecap:round;stroke-linejoin:round"
       id="path38" />
    <path
       d="m 43,-6 v 4"
       style="fill:none;stroke:#000080;stroke-width:0.25;stroke-linecap:round;stroke-linejoin:round"
       id="path40" />
    <path
       d="m 53,-6 v 4"
       style="fill:none;stroke:#000080;stroke-width:0.25;stroke-linecap:round;stroke-linejoin:round"
       id="path42" />
    <path
       d="m 63,-6 v 4"
       style="fill:none;stroke:#000080;stroke-width:0.25;stroke-linecap:round;stroke-linejoin:round"
       id="path44" />
    <path
       d="m 73,-6 v 4"
       style="fill:none;stroke:#000080;stroke-width:0.25;stroke-linecap:round;stroke-linejoin:round"
       id="path46" />
    <path
       d="m 83,-6 v 4"
       style="fill:none;stroke:#000080;stroke-width:0.25;stroke-linecap:round;stroke-linejoin:round"
       id="path48" />
    <path
       d="m 93,-6 v 4"
       style="fill:none;stroke:#000080;stroke-width:0.25;stroke-linecap:round;stroke-linejoin:round"
       id="path50" />
    <path
       d="m 103,-6 v 4"
       style="fill:none;stroke:#000080;stroke-width:0.25;stroke-linecap:round;stroke-linejoin:round"
       id="path52" />
    <path
       d="m 113,-6 v 4"
       style="fill:none;stroke:#000080;stroke-width:0.25;stroke-linecap:round;stroke-linejoin:round"
       id="path54" />
    <path
       d="m 123,-6 v 4"
       style="fill:none;stroke:#000080;stroke-width:0.25;stroke-linecap:round;stroke-linejoin:round"
       id="path56" />
    <path
       d="m 153,-6 v 4"
       style="fill:none;stroke:#000080;stroke-width:0.25;stroke-linecap:round;stroke-linejoin:round"
       id="path58" />
    <path
       d="m 133,-6 v 4"
       style="fill:none;stroke:#000080;stroke-width:0.25;stroke-linecap:round;stroke-linejoin:round"
       id="path60" />
    <path
       d="m 143,-6 v 4"
       style="fill:none;stroke:#000080;stroke-width:0.25;stroke-linecap:round;stroke-linejoin:round"
       id="path68" />
    <path
       d="m 13.125,14.125 v -2"
       style="fill:none;stroke:#0000ff;stroke-width:0.25;stroke-linecap:round;stroke-linejoin:round"
       id="path102" />
    <g
       id="g156"
       transform="matrix(1,0,0,-1,5.1250005,20.124999)"
       style="fill:none;stroke-linecap:round;stroke-linejoin:round">
      <path
         d="m -1.6955,9.0082 c 0.1937,0 0.3451,-0.0691 0.4543,-0.2074 0.13,-0.1637 0.195,-0.4352 0.195,-0.8144 0,-0.3784 -0.0654,-0.6503 -0.1964,-0.8159 -0.1082,-0.1364 -0.2592,-0.2046 -0.4529,-0.2046 -0.1947,0 -0.3516,0.0748 -0.4707,0.2244 -0.1192,0.1496 -0.1787,0.4163 -0.1787,0.8002 0,0.3765 0.0655,0.6475 0.1964,0.813 0.1083,0.1365 0.2592,0.2047 0.453,0.2047 m 0,-0.3179 C -1.7419,8.6903 -1.7833,8.6755 -1.8197,8.646 -1.8561,8.6164 -1.8843,8.5634 -1.9043,8.487 -1.9306,8.3879 -1.9438,8.221 -1.9438,7.9864 c 0,-0.2347 0.0118,-0.3959 0.0354,-0.4837 0.0237,-0.0877 0.0535,-0.1462 0.0894,-0.1753 0.0359,-0.0291 0.0771,-0.0436 0.1235,-0.0436 0.0463,0 0.0877,0.0147 0.1241,0.0443 0.0364,0.0296 0.0646,0.0825 0.0846,0.1589 0.0264,0.0983 0.0396,0.2647 0.0396,0.4994 0,0.2346 -0.0119,0.3958 -0.0355,0.4836 -0.0237,0.0878 -0.0534,0.1464 -0.0894,0.176 -0.0359,0.0295 -0.0771,0.0443 -0.1234,0.0443 M -0.7079,7 v 0.3834 h 0.3834 V 7 Z m 0.6998,0.5143 0.382,0.0396 C 0.3848,7.4675 0.4171,7.399 0.4707,7.3486 0.5244,7.2981 0.5862,7.2729 0.6563,7.2729 c 0.08,0 0.1478,0.0325 0.2033,0.0975 0.0554,0.065 0.0832,0.163 0.0832,0.294 0,0.1228 -0.0275,0.2149 -0.0826,0.2763 -0.055,0.0613 -0.1266,0.092 -0.2148,0.092 -0.1101,0 -0.2088,-0.0486 -0.2961,-0.1459 l -0.311,0.045 0.1964,1.0409 H 1.2484 V 8.6139 H 0.5253 L 0.4653,8.2742 C 0.5508,8.317 0.6381,8.3383 0.7272,8.3383 0.8973,8.3383 1.0415,8.2765 1.1597,8.1528 1.2779,8.0291 1.337,7.8686 1.337,7.6712 1.337,7.5066 1.2893,7.3597 1.1938,7.2306 1.0637,7.0541 0.8832,6.9659 0.6522,6.9659 0.4676,6.9659 0.317,7.0155 0.2006,7.1146 0.0842,7.2137 0.0146,7.347 -0.0081,7.5143 M 3.6807,7.7353 4.0722,7.6112 C 4.0122,7.3929 3.9124,7.2308 3.7728,7.1248 3.6331,7.0189 3.456,6.9659 3.2414,6.9659 c -0.2656,0 -0.4839,0.0907 -0.6549,0.2722 -0.171,0.1814 -0.2564,0.4295 -0.2564,0.7442 0,0.3328 0.0859,0.5914 0.2578,0.7755 0.1719,0.1842 0.3979,0.2763 0.678,0.2763 0.2447,0 0.4434,-0.0723 0.5962,-0.2169 C 3.9531,8.7317 4.0213,8.6089 4.0668,8.4488 L 3.667,8.3533 C 3.6434,8.457 3.594,8.5389 3.519,8.5989 3.444,8.6589 3.3528,8.6889 3.2455,8.6889 3.0972,8.6889 2.9769,8.6357 2.8846,8.5293 2.7923,8.4229 2.7462,8.2506 2.7462,8.0123 2.7462,7.7594 2.7916,7.5794 2.8826,7.472 2.9735,7.3647 3.0918,7.3111 3.2373,7.3111 c 0.1073,0 0.1996,0.0341 0.2769,0.1023 0.0773,0.0682 0.1328,0.1755 0.1665,0.3219 M 4.4131,7 V 9 H 5.0175 L 5.3804,7.6357 5.7392,9 H 6.3449 V 7 H 5.9698 V 8.5744 L 5.5728,7 H 5.1839 L 4.7883,8.5744 V 7 Z"
         style="fill:#0000ff;fill-rule:evenodd"
         id="path154" />
    </g>
  </g>
</svg>
